<svg width="38" height="38" viewBox="0 0 38 38" fill="none" xmlns="http://www.w3.org/2000/svg">
<g id="carbon:security">
<path id="Vector" d="M19.389 35.1178L12.2051 31.2874C10.157 30.198 8.44417 28.5714 7.25065 26.5821C6.05713 24.5929 5.42795 22.3161 5.43067 19.9963V4.87473C5.43067 4.25773 5.67577 3.66601 6.11206 3.22972C6.54834 2.79344 7.14007 2.54834 7.75706 2.54834H31.021C31.6379 2.54834 32.2297 2.79344 32.666 3.22972C33.1022 3.66601 33.3473 4.25773 33.3473 4.87473V19.9963C33.3501 22.3161 32.7209 24.5929 31.5274 26.5821C30.3338 28.5714 28.6211 30.198 26.5729 31.2874L19.389 35.1178ZM7.75706 4.87473V19.9963C7.75577 21.8942 8.27105 23.7568 9.24767 25.3842C10.2243 27.0116 11.6254 28.3426 13.3008 29.2343L19.389 32.4808L25.4772 29.2355C27.1528 28.3436 28.554 27.0125 29.5306 25.3849C30.5073 23.7572 31.0225 21.8944 31.021 19.9963V4.87473H7.75706Z" fill="#41638E"/>
</g>
</svg>
