<svg width="38" height="38" viewBox="0 0 38 38" fill="none" xmlns="http://www.w3.org/2000/svg">
<g id="carbon:security">
<path id="Vector" d="M17.0624 19.2973L14.0498 16.2846L12.4097 17.9247L17.0624 22.5775L26.368 13.2719L24.7279 11.6318L17.0624 19.2973Z" fill="#41638E"/>
<path id="Vector_2" d="M19.389 34.8956L12.2051 31.0652C10.157 29.9759 8.44417 28.3492 7.25065 26.36C6.05713 24.3707 5.42795 22.0939 5.43067 19.7741V4.65256C5.43067 4.03556 5.67577 3.44384 6.11206 3.00756C6.54834 2.57127 7.14007 2.32617 7.75706 2.32617H31.021C31.6379 2.32617 32.2297 2.57127 32.666 3.00756C33.1022 3.44384 33.3473 4.03556 33.3473 4.65256V19.7741C33.3501 22.0939 32.7209 24.3707 31.5274 26.36C30.3338 28.3492 28.6211 29.9759 26.5729 31.0652L19.389 34.8956ZM7.75706 4.65256V19.7741C7.75577 21.6721 8.27105 23.5346 9.24767 25.162C10.2243 26.7895 11.6254 28.1204 13.3008 29.0122L19.389 32.2587L25.4772 29.0133C27.1528 28.1215 28.554 26.7903 29.5306 25.1627C30.5073 23.535 31.0225 21.6723 31.021 19.7741V4.65256H7.75706Z" fill="#41638E"/>
</g>
</svg>
