<svg width="321" height="277" viewBox="0 0 321 277" fill="none" xmlns="http://www.w3.org/2000/svg">
<g clip-path="url(#clip0_13_189)">
<path d="M0 274.194C0 274.599 0.324281 274.923 0.728093 274.923H320.272C320.676 274.923 321 274.599 321 274.194C321 273.79 320.676 273.465 320.272 273.465H0.728093C0.324276 273.465 0 273.79 0 274.194Z" fill="#3F3C57"/>
<path d="M104.258 29.438L107.733 45.3156L100.342 67.4157L88.4333 43.6709L90.0856 29.8956L104.258 29.438Z" fill="#FDB4B4"/>
<path d="M108.378 44.4937H87.8174V69.3691H108.378V44.4937Z" fill="#41638E"/>
<path d="M99.9233 37.4361C107.678 37.4361 113.965 31.1412 113.965 23.376C113.965 15.6108 107.678 9.31592 99.9233 9.31592C92.1683 9.31592 85.8816 15.6108 85.8816 23.376C85.8816 31.1412 92.1683 37.4361 99.9233 37.4361Z" fill="#FDB4B4"/>
<path d="M87.7007 33.831C87.7007 33.831 77.234 14.4753 86.671 5.16092C96.1079 -4.1535 103.683 1.98412 103.683 1.98412L108.009 1.80906C108.009 1.80906 108.912 5.21795 110.366 3.37258C111.821 1.5272 114.45 8.24782 114.45 8.24782C119.329 17.0467 102.415 19.0178 102.415 19.0178C102.415 19.0178 103.636 22.9137 102.395 23.7296C101.153 24.5455 97.8362 27.6147 97.8362 27.6147L94.8672 29.8599L93.1028 27.1682C93.1028 27.1682 91.2599 25.7115 90.3288 26.3234C89.3977 26.9353 90.6784 34.9865 90.6784 34.9865L87.7007 33.831Z" fill="#2E2E41"/>
<path d="M70.8556 176.227L65.4871 256.412L78.6846 256.86L96.1323 176.899L70.8556 176.227Z" fill="#2E2E41"/>
<path d="M102.843 175.779L97.4744 255.964L110.672 256.412L128.12 176.451L102.843 175.779Z" fill="#2E2E41"/>
<path d="M67.6228 194.547L74.6485 107.214L63.8743 61.7378C62.9455 54.9777 67.1993 48.5813 73.7645 46.8371L84.3072 44.0364L88.9735 39.3638L99.5873 62.8333L106.216 39.3817L111.386 43.1464L126.719 49.9199L126.712 50.0785L124.252 105.014L129.742 193.769L129.499 193.773L67.6228 194.547Z" fill="#E8E9EA"/>
<path d="M109.825 255.501L113.646 266.924C113.646 266.924 128.596 268.959 128.829 273.594C129.061 278.228 108.511 275.545 96.4771 276.151C84.4434 276.757 94.4605 263.708 94.4605 263.708L95.7428 256.21L109.825 255.501Z" fill="#2E2E41"/>
<path d="M78.6171 254.679L82.4385 266.102C82.4385 266.102 97.3887 268.137 97.6213 272.771C97.854 277.406 77.3032 274.723 65.2695 275.329C53.2359 275.934 63.253 262.886 63.253 262.886L64.5353 255.387L78.6171 254.679Z" fill="#2E2E41"/>
<path d="M59.973 148.166C59.811 145.913 60.1901 143.655 61.0786 141.58L58.2266 118.153L69.3988 117.12L71.0886 140.995C72.2114 142.953 72.8496 145.151 72.95 147.406C73.2786 153.047 70.6399 157.787 67.056 157.997C63.4721 158.206 60.3007 153.805 59.973 148.166Z" fill="#FDB4B4"/>
<path d="M130.735 151.604C130.597 149.35 131.001 147.096 131.912 145.03L129.315 121.574L140.498 120.663L141.928 144.555C143.029 146.525 143.643 148.73 143.719 150.986C143.986 156.63 141.296 161.341 137.71 161.512C134.124 161.682 131.001 157.246 130.735 151.604Z" fill="#FDB4B4"/>
<path d="M58.1804 138.771L58.1427 138.568L52.3201 107.286L59.2 56.3469C59.8139 51.7991 63.8695 48.5231 68.4428 48.8892C70.8312 49.0807 72.974 50.2149 74.4772 52.0835C75.9801 53.9521 76.6305 56.2903 76.3082 58.6678L71.1301 96.8716L74.3903 137.734L58.1804 138.771Z" fill="#E8E9EA"/>
<path d="M127.284 138.036L115.578 59.7921C114.969 57.4978 115.326 55.0968 116.586 53.0565C117.846 51.0162 119.833 49.625 122.179 49.139C126.668 48.2094 131.101 50.957 132.273 55.3934L143.519 137.054L127.284 138.036Z" fill="#E8E9EA"/>
<path d="M99.9308 69.9856C100.725 69.9856 101.368 69.3413 101.368 68.5465C101.368 67.7517 100.725 67.1074 99.9308 67.1074C99.1371 67.1074 98.4937 67.7517 98.4937 68.5465C98.4937 69.3413 99.1371 69.9856 99.9308 69.9856Z" fill="#D6D7D8"/>
<path d="M99.9308 80.8816C100.725 80.8816 101.368 80.2373 101.368 79.4425C101.368 78.6477 100.725 78.0034 99.9308 78.0034C99.1371 78.0034 98.4937 78.6477 98.4937 79.4425C98.4937 80.2373 99.1371 80.8816 99.9308 80.8816Z" fill="#D6D7D8"/>
<path d="M99.9308 91.7776C100.725 91.7776 101.368 91.1333 101.368 90.3385C101.368 89.5437 100.725 88.8994 99.9308 88.8994C99.1371 88.8994 98.4937 89.5437 98.4937 90.3385C98.4937 91.1333 99.1371 91.7776 99.9308 91.7776Z" fill="#D6D7D8"/>
<path d="M99.9308 102.673C100.725 102.673 101.368 102.029 101.368 101.234C101.368 100.439 100.725 99.7949 99.9308 99.7949C99.1371 99.7949 98.4937 100.439 98.4937 101.234C98.4937 102.029 99.1371 102.673 99.9308 102.673Z" fill="#D6D7D8"/>
<path d="M99.9308 113.569C100.725 113.569 101.368 112.925 101.368 112.13C101.368 111.335 100.725 110.691 99.9308 110.691C99.1371 110.691 98.4937 111.335 98.4937 112.13C98.4937 112.925 99.1371 113.569 99.9308 113.569Z" fill="#D6D7D8"/>
<path d="M99.9308 124.465C100.725 124.465 101.368 123.821 101.368 123.026C101.368 122.231 100.725 121.587 99.9308 121.587C99.1371 121.587 98.4937 122.231 98.4937 123.026C98.4937 123.821 99.1371 124.465 99.9308 124.465Z" fill="#D6D7D8"/>
<path d="M99.9308 135.361C100.725 135.361 101.368 134.717 101.368 133.922C101.368 133.127 100.725 132.483 99.9308 132.483C99.1371 132.483 98.4937 133.127 98.4937 133.922C98.4937 134.717 99.1371 135.361 99.9308 135.361Z" fill="#D6D7D8"/>
<path d="M99.9308 146.257C100.725 146.257 101.368 145.612 101.368 144.817C101.368 144.023 100.725 143.378 99.9308 143.378C99.1371 143.378 98.4937 144.023 98.4937 144.817C98.4937 145.612 99.1371 146.257 99.9308 146.257Z" fill="#D6D7D8"/>
<path d="M99.9325 154.685L72.7392 151.057L72.2155 150.987L58.3177 118.9L50.041 99.7959H71.5992L99.9325 154.685Z" fill="#41638E"/>
<path d="M208.963 32.929L226.252 23.4453V50.5416H206.257L208.963 32.929Z" fill="#2E2E41"/>
<path d="M229.959 38.9697L231.554 52.2724L220.055 75.2024L212.917 53.8606L216.273 38.5278L229.959 38.9697Z" fill="#FDB4B4"/>
<path d="M232.149 53.0669H212.294V77.0888H232.149V53.0669Z" fill="#41638E"/>
<path d="M248.529 180.28L253.713 257.714L240.969 258.147L224.12 180.929L248.529 180.28Z" fill="#2E2E41"/>
<path d="M217.639 179.848L222.823 257.281L210.079 257.714L193.23 180.497L217.639 179.848Z" fill="#2E2E41"/>
<path d="M261.994 196.703L261.69 196.702L180.5 196.437L180.573 196.149L201.447 113.339L196.218 71.5471C195.227 63.6281 199.461 56.143 206.753 52.9218L209.386 51.759L214.387 48.1173L220.785 70.7541L231.03 48.0996L235.543 52.6182L245.722 55.3224C252.066 57.0076 256.176 63.1883 255.282 69.6992L255.272 69.7445L239.728 114.156L261.994 196.703Z" fill="#E8E9EA"/>
<path d="M210.897 256.834L224.496 257.518L225.734 264.759C225.734 264.759 235.407 277.36 223.787 276.775C212.166 276.191 192.32 278.781 192.545 274.306C192.77 269.83 207.207 267.865 207.207 267.865L210.897 256.834Z" fill="#2E2E41"/>
<path d="M241.034 256.04L254.633 256.724L255.871 263.965C255.871 263.965 265.544 276.566 253.923 275.981C242.303 275.397 222.457 277.987 222.682 273.512C222.906 269.036 237.344 267.071 237.344 267.071L241.034 256.04Z" fill="#2E2E41"/>
<path d="M253.487 152.388C253.17 157.833 250.108 162.083 246.647 161.881C243.186 161.679 240.638 157.101 240.955 151.654C241.052 149.476 241.668 147.353 242.752 145.463L244.384 122.407L255.173 123.405L252.419 146.028C253.277 148.032 253.643 150.213 253.487 152.388Z" fill="#FDB4B4"/>
<path d="M198.044 150.316C197.612 155.754 194.46 159.938 191.004 159.662C187.548 159.386 185.098 154.755 185.531 149.316C185.674 147.141 186.335 145.031 187.459 143.165L189.581 120.149L200.346 121.376L197.112 143.935C197.927 145.957 198.247 148.145 198.044 150.316Z" fill="#FDB4B4"/>
<path d="M255.224 143.323L239.555 142.322L239.574 142.086L242.704 102.854L237.704 65.9617C237.392 63.6638 238.021 61.4035 239.474 59.5975C240.926 57.7912 242.998 56.6948 245.307 56.5097C249.727 56.1608 253.647 59.3226 254.241 63.7184L260.885 112.911L260.878 112.948L255.224 143.323Z" fill="#E8E9EA"/>
<path d="M200.652 141.82L184.959 140.87L184.993 140.622L195.815 62.0303C196.953 57.7139 201.24 55.0589 205.577 55.957C207.845 56.4267 209.765 57.7714 210.983 59.7438C212.202 61.7161 212.546 64.0367 211.953 66.2784L200.652 141.82Z" fill="#E8E9EA"/>
<path d="M220.451 77.6842C221.218 77.6842 221.839 77.062 221.839 76.2945C221.839 75.527 221.218 74.9048 220.451 74.9048C219.685 74.9048 219.063 75.527 219.063 76.2945C219.063 77.062 219.685 77.6842 220.451 77.6842Z" fill="#D6D7D8"/>
<path d="M220.451 88.2061C221.218 88.2061 221.839 87.584 221.839 86.8165C221.839 86.0489 221.218 85.4268 220.451 85.4268C219.685 85.4268 219.063 86.0489 219.063 86.8165C219.063 87.584 219.685 88.2061 220.451 88.2061Z" fill="#D6D7D8"/>
<path d="M220.451 98.7281C221.218 98.7281 221.839 98.1059 221.839 97.3384C221.839 96.5709 221.218 95.9487 220.451 95.9487C219.685 95.9487 219.063 96.5709 219.063 97.3384C219.063 98.1059 219.685 98.7281 220.451 98.7281Z" fill="#D6D7D8"/>
<path d="M220.451 109.25C221.218 109.25 221.839 108.628 221.839 107.86C221.839 107.093 221.218 106.471 220.451 106.471C219.685 106.471 219.063 107.093 219.063 107.86C219.063 108.628 219.685 109.25 220.451 109.25Z" fill="#D6D7D8"/>
<path d="M220.451 119.772C221.218 119.772 221.839 119.15 221.839 118.382C221.839 117.615 221.218 116.993 220.451 116.993C219.685 116.993 219.063 117.615 219.063 118.382C219.063 119.15 219.685 119.772 220.451 119.772Z" fill="#D6D7D8"/>
<path d="M220.451 130.294C221.218 130.294 221.839 129.672 221.839 128.904C221.839 128.137 221.218 127.515 220.451 127.515C219.685 127.515 219.063 128.137 219.063 128.904C219.063 129.672 219.685 130.294 220.451 130.294Z" fill="#D6D7D8"/>
<path d="M220.451 140.816C221.218 140.816 221.839 140.194 221.839 139.426C221.839 138.659 221.218 138.037 220.451 138.037C219.685 138.037 219.063 138.659 219.063 139.426C219.063 140.194 219.685 140.816 220.451 140.816Z" fill="#D6D7D8"/>
<path d="M220.451 151.338C221.218 151.338 221.839 150.716 221.839 149.948C221.839 149.181 221.218 148.559 220.451 148.559C219.685 148.559 219.063 149.181 219.063 149.948C219.063 150.716 219.685 151.338 220.451 151.338Z" fill="#D6D7D8"/>
<path d="M222.558 45.7593C229.728 45.7593 235.54 39.9397 235.54 32.7608C235.54 25.5819 229.728 19.7622 222.558 19.7622C215.389 19.7622 209.577 25.5819 209.577 32.7608C209.577 39.9397 215.389 45.7593 222.558 45.7593Z" fill="#FDB4B4"/>
<path d="M229.361 17.5864C229.983 18.8532 228.997 20.4356 227.691 20.9682C226.386 21.5008 224.911 21.285 223.518 21.0633C222.126 20.8416 220.649 20.6314 219.347 21.1734C217.663 21.8747 216.714 23.634 215.896 25.2665C214.368 28.3142 212.841 31.3619 211.314 34.4096C210.567 35.8987 209.804 37.4546 209.79 39.1206C209.763 42.1785 212.186 44.6224 213.49 47.3879C215.077 50.7551 214.946 54.8816 213.149 58.1412C211.351 61.4008 207.934 63.7103 204.242 64.1595C203.271 64.2777 202.243 64.2649 201.37 63.8231C200.497 63.3813 199.83 62.4165 199.992 61.4503C200.308 59.5606 203.192 59.119 203.722 57.2778C203.998 56.3166 203.509 55.2902 202.848 54.5395C202.188 53.7887 201.354 53.2031 200.724 52.4266C199.272 50.636 199.175 47.8719 200.499 45.9839C201.276 44.8744 202.479 44.05 202.981 42.7914C203.41 41.7187 203.254 40.5128 203.092 39.3689C202.883 37.8991 202.675 36.4293 202.466 34.9594C202.223 33.2446 201.984 31.4682 202.464 29.8043C203.566 25.9914 207.866 24.2006 210.387 21.1379C211.559 19.7147 212.347 18.0031 213.549 16.6055C215.566 14.2601 218.742 12.9663 221.822 13.2352C224.901 13.5042 227.805 15.329 229.387 17.9887" fill="#2E2E41"/>
<path d="M227.312 17.8267C226.678 18.0538 226.442 18.8809 226.625 19.5301C226.807 20.1793 227.285 20.6951 227.723 21.2079C232.672 27.0071 233.822 35.7789 230.536 42.6608C229.662 44.4913 228.498 46.214 228.026 48.1873C227.683 49.6231 227.702 51.1981 226.906 52.4411C226.096 53.7066 224.492 54.5545 224.333 56.0491C224.231 57.0082 224.815 57.9399 225.597 58.5022C226.38 59.0645 227.336 59.3218 228.276 59.5316C230.72 60.0769 233.219 60.3746 235.722 60.4186C236.538 60.433 237.381 60.4153 238.129 60.0897C238.878 59.7641 239.517 59.0579 239.526 58.2406C239.532 57.5983 239.162 57.0057 239.115 56.3651C238.974 54.4455 241.553 53.4243 242.056 51.5664C242.386 50.345 241.735 49.0881 241.042 48.0302C240.348 46.9723 239.557 45.8615 239.574 44.5961C239.59 43.3848 240.349 42.318 240.645 41.1431C241.053 39.518 240.551 37.8182 240.054 36.2182C239.631 34.8579 239.208 33.4977 238.786 32.1374C238.336 30.6914 237.887 29.2454 237.437 27.7994C236.653 25.2749 235.829 22.6773 234.131 20.6526C232.433 18.6279 229.62 17.3008 227.112 18.1275" fill="#2E2E41"/>
<path d="M236.158 68.1966L235.268 67.9369C237.122 61.5726 233.125 49.6961 233.084 49.5769L233.962 49.2773C234.131 49.7756 238.093 61.5536 236.158 68.1966Z" fill="#3F3C57"/>
<path d="M235.713 75.5064C237.851 75.5064 239.584 73.7709 239.584 71.6299C239.584 69.489 237.851 67.7534 235.713 67.7534C233.575 67.7534 231.842 69.489 231.842 71.6299C231.842 73.7709 233.575 75.5064 235.713 75.5064Z" fill="#3F3C57"/>
<path d="M210.275 85.3543H207.927C207.671 85.3543 207.464 85.1466 207.464 84.8903C207.464 84.634 207.671 84.4263 207.927 84.4263H210.275C210.922 84.4263 211.53 84.1739 211.987 83.7153C212.444 83.2569 212.695 82.6477 212.694 82.0001L212.665 67.5195C212.665 64.3737 210.11 61.8153 206.969 61.8153C203.829 61.8153 201.273 64.3737 201.273 67.5186L201.302 81.0725C201.304 82.3948 202.381 83.4787 203.701 83.4889L205.313 83.5012C205.569 83.5032 205.775 83.7123 205.773 83.9688C205.771 84.2237 205.564 84.4292 205.309 84.4292H205.306L203.694 84.417C201.868 84.4029 200.378 82.9032 200.375 81.0743L200.346 67.5195C200.346 63.8621 203.317 60.8872 206.969 60.8872C210.621 60.8872 213.592 63.8621 213.592 67.5186L213.621 81.9983C213.622 82.8942 213.275 83.7368 212.643 84.3708C212.011 85.0049 211.17 85.3543 210.275 85.3543Z" fill="#3F3C57"/>
<path d="M205.31 85.6096C206.217 85.6096 206.952 84.8733 206.952 83.965C206.952 83.0567 206.217 82.3203 205.31 82.3203C204.402 82.3203 203.667 83.0567 203.667 83.965C203.667 84.8733 204.402 85.6096 205.31 85.6096Z" fill="#3F3C57"/>
<path d="M207.927 86.5349C208.834 86.5349 209.57 85.7986 209.57 84.8903C209.57 83.9819 208.834 83.2456 207.927 83.2456C207.02 83.2456 206.285 83.9819 206.285 84.8903C206.285 85.7986 207.02 86.5349 207.927 86.5349Z" fill="#3F3C57"/>
<path d="M113.107 61.2411L112.217 60.9815C114.071 54.6172 110.119 42.5567 110.078 42.4375L111.19 43.277C111.36 43.7752 115.042 54.5982 113.107 61.2411Z" fill="#3F3C57"/>
<path d="M81.8308 62.3716L82.7205 62.112C80.8668 55.7477 84.8638 43.8711 84.9041 43.752L83.9523 44.3903C83.7826 44.8886 79.8956 55.7287 81.8308 62.3716Z" fill="#3F3C57"/>
<path d="M112.662 68.5509C114.8 68.5509 116.533 66.8153 116.533 64.6744C116.533 62.5334 114.8 60.7979 112.662 60.7979C110.524 60.7979 108.791 62.5334 108.791 64.6744C108.791 66.8153 110.524 68.5509 112.662 68.5509Z" fill="#3F3C57"/>
<path d="M85.9581 86.2108H83.6103C83.3541 86.2108 83.1469 86.003 83.1469 85.7467C83.1469 85.4905 83.3541 85.2827 83.6103 85.2827H85.9581C86.6053 85.2827 87.2131 85.0303 87.6702 84.5717C88.1268 84.1134 88.3779 83.5041 88.3766 82.8566L88.3481 68.3759C88.3481 65.2302 85.7929 62.6717 82.6522 62.6717C79.5115 62.6717 76.9559 65.2302 76.9559 68.375L76.9844 81.929C76.9871 83.2513 78.0637 84.3352 79.3843 84.3454L80.9959 84.3576C81.2515 84.3597 81.4575 84.5688 81.4556 84.8253C81.4538 85.0802 81.2466 85.2857 80.9922 85.2857H80.9886L79.3771 85.2734C77.5505 85.2594 76.0612 83.7597 76.0576 81.9308L76.0291 68.3759C76.0291 64.7186 79.0001 61.7437 82.6522 61.7437C86.3039 61.7437 89.2749 64.7186 89.2749 68.375L89.3034 82.8547C89.3052 83.7506 88.9581 84.5933 88.3259 85.2272C87.6941 85.8614 86.8528 86.2108 85.9581 86.2108Z" fill="#3F3C57"/>
<path d="M80.9924 86.4661C81.8995 86.4661 82.6349 85.7297 82.6349 84.8214C82.6349 83.9131 81.8995 83.1768 80.9924 83.1768C80.0852 83.1768 79.3499 83.9131 79.3499 84.8214C79.3499 85.7297 80.0852 86.4661 80.9924 86.4661Z" fill="#3F3C57"/>
<path d="M83.6103 87.3914C84.5174 87.3914 85.2528 86.655 85.2528 85.7467C85.2528 84.8384 84.5174 84.1021 83.6103 84.1021C82.7032 84.1021 81.9678 84.8384 81.9678 85.7467C81.9678 86.655 82.7032 87.3914 83.6103 87.3914Z" fill="#3F3C57"/>
</g>
<defs>
<clipPath id="clip0_13_189">
<rect width="321" height="277" fill="white"/>
</clipPath>
</defs>
</svg>
