<?xml version="1.0" encoding="UTF-8" standalone="no"?>
<svg
   width="30"
   height="20"
   viewBox="0 0 30 20"
   fill="none"
   version="1.1"
   id="svg1"
   sodipodi:docname="menu.svg"
   inkscape:version="1.3 (0e150ed6c4, 2023-07-21)"
   xmlns:inkscape="http://www.inkscape.org/namespaces/inkscape"
   xmlns:sodipodi="http://sodipodi.sourceforge.net/DTD/sodipodi-0.dtd"
   xmlns="http://www.w3.org/2000/svg"
   xmlns:svg="http://www.w3.org/2000/svg">
  <defs
     id="defs1" />
  <sodipodi:namedview
     id="namedview1"
     pagecolor="#ffffff"
     bordercolor="#000000"
     borderopacity="0.25"
     inkscape:showpageshadow="2"
     inkscape:pageopacity="0.0"
     inkscape:pagecheckerboard="0"
     inkscape:deskcolor="#d1d1d1"
     inkscape:zoom="9.7416667"
     inkscape:cx="-0.46193328"
     inkscape:cy="20.479042"
     inkscape:window-width="1920"
     inkscape:window-height="1051"
     inkscape:window-x="-9"
     inkscape:window-y="-9"
     inkscape:window-maximized="1"
     inkscape:current-layer="svg1" />
  <g
     id="Group 10008">
    <path
       style="color:#000000;fill:#ffffff;stroke-linecap:round;stroke-linejoin:round;-inkscape-stroke:none"
       d="M 7.75,0.90625 A 1.21875,1.21875 0 0 0 6.53125,2.125 1.21875,1.21875 0 0 0 7.75,3.34375 H 28 A 1.21875,1.21875 0 0 0 29.21875,2.125 1.21875,1.21875 0 0 0 28,0.90625 Z m 0,7.875 A 1.21875,1.21875 0 0 0 6.53125,10 1.21875,1.21875 0 0 0 7.75,11.21875 H 28 A 1.21875,1.21875 0 0 0 29.21875,10 1.21875,1.21875 0 0 0 28,8.78125 Z m 0,7.875 A 1.21875,1.21875 0 0 0 6.53125,17.875 1.21875,1.21875 0 0 0 7.75,19.09375 H 28 A 1.21875,1.21875 0 0 0 29.21875,17.875 1.21875,1.21875 0 0 0 28,16.65625 Z"
       id="path4" />
    <path
       style="color:#000000;fill:#ffffff;stroke-linecap:round;stroke-linejoin:round;-inkscape-stroke:none"
       d="m 2.125,0.1875 c -1.0604271,0 -1.9375,0.8770729 -1.9375,1.9375 0,1.0604271 0.8770729,1.9375 1.9375,1.9375 1.0604271,0 1.9375,-0.8770729 1.9375,-1.9375 0,-1.0604271 -0.8770729,-1.9375 -1.9375,-1.9375 z m 0,1.625 c 0.1822117,0 0.3125,0.1302883 0.3125,0.3125 0,0.1822117 -0.1302883,0.3125 -0.3125,0.3125 -0.1822117,0 -0.3125,-0.1302883 -0.3125,-0.3125 0,-0.1822117 0.1302883,-0.3125 0.3125,-0.3125 z"
       id="path3" />
    <path
       style="color:#000000;fill:#ffffff;stroke-linecap:round;stroke-linejoin:round;-inkscape-stroke:none"
       d="m 2.125,8.0625 c -1.0604271,0 -1.9375,0.8770729 -1.9375,1.9375 0,1.060421 0.8770555,1.9375 1.9375,1.9375 1.0604445,0 1.9375,-0.877079 1.9375,-1.9375 0,-1.0604271 -0.8770729,-1.9375 -1.9375,-1.9375 z m 0,1.625 c 0.1822117,0 0.3125,0.1302883 0.3125,0.3125 0,0.182178 -0.1303058,0.3125 -0.3125,0.3125 -0.1821942,0 -0.3125,-0.130322 -0.3125,-0.3125 0,-0.1822117 0.1302883,-0.3125 0.3125,-0.3125 z"
       id="path2" />
    <path
       style="color:#000000;fill:#ffffff;stroke-linecap:round;stroke-linejoin:round;-inkscape-stroke:none"
       d="m 2.125,15.9375 c -1.0604445,0 -1.9375,0.877079 -1.9375,1.9375 0,1.060421 0.8770555,1.9375 1.9375,1.9375 1.0604445,0 1.9375,-0.877079 1.9375,-1.9375 0,-1.060421 -0.8770555,-1.9375 -1.9375,-1.9375 z m 0,1.625 c 0.1821942,0 0.3125,0.130322 0.3125,0.3125 0,0.182178 -0.1303058,0.3125 -0.3125,0.3125 -0.1821942,0 -0.3125,-0.130322 -0.3125,-0.3125 0,-0.182178 0.1303058,-0.3125 0.3125,-0.3125 z"
       id="path1" />
  </g>
</svg>
