<svg width="47" height="31" viewBox="0 0 47 31" fill="none" xmlns="http://www.w3.org/2000/svg">
<path d="M2.58182 0.291504C3.15117 0.291579 3.70069 0.500606 4.12615 0.87894C4.55162 1.25727 4.82344 1.7786 4.89005 2.34404L4.90632 2.616V16.563H18.8533V4.9405C18.8534 4.37115 19.0624 3.82163 19.4408 3.39617C19.8191 2.97071 20.3404 2.69889 20.9058 2.63227L21.1778 2.616H39.7738C41.5525 2.6159 43.2641 3.29551 44.5582 4.51578C45.8524 5.73604 46.6313 7.40472 46.7357 9.18039L46.7473 9.5895V28.1855C46.7466 28.778 46.5198 29.3478 46.1131 29.7786C45.7063 30.2094 45.1505 30.4687 44.559 30.5034C43.9676 30.5381 43.3852 30.3457 42.9309 29.9654C42.4765 29.5852 42.1845 29.0458 42.1146 28.4575L42.0983 28.1855V21.212H4.90632V28.1855C4.90566 28.778 4.6788 29.3478 4.27209 29.7786C3.86537 30.2094 3.3095 30.4687 2.71805 30.5034C2.1266 30.5381 1.54421 30.3457 1.08988 29.9654C0.635553 29.5852 0.343572 29.0458 0.273596 28.4575L0.257324 28.1855V2.616C0.257324 1.99951 0.502226 1.40826 0.938154 0.972334C1.37408 0.536406 1.96533 0.291504 2.58182 0.291504Z" fill="#33B528"/>
<path d="M11.8795 4.93994C12.784 4.94023 13.6689 5.2044 14.4255 5.70008C15.1822 6.19576 15.7778 6.90141 16.1394 7.73056C16.501 8.55972 16.6128 9.47634 16.4612 10.3681C16.3096 11.2599 15.9012 12.0881 15.2859 12.7511C14.6706 13.4142 13.8753 13.8834 12.9973 14.1012C12.1193 14.319 11.1969 14.2759 10.3431 13.9772C9.48923 13.6786 8.74106 13.1373 8.19026 12.4198C7.63945 11.7023 7.30993 10.8396 7.24209 9.93761L7.23047 9.58894L7.24209 9.24026C7.33006 8.07068 7.85685 6.97757 8.71687 6.18005C9.5769 5.38254 10.7066 4.93957 11.8795 4.93994Z" fill="#33B528"/>
</svg>
