<svg width="200" height="150" viewBox="0 0 200 150" fill="none" xmlns="http://www.w3.org/2000/svg">
<g id="Search">
<path id="Vector" d="M88.2199 44.6366C88.2199 44.6366 72.7699 33.2813 57.3249 34.8261C41.8799 36.3709 26.2749 56.1558 26.2749 56.1558L31.2749 59.921C31.2749 59.921 57.1899 38.5615 71.2249 54.3526C85.2599 70.1437 88.2199 44.6366 88.2199 44.6366Z" fill="#2BC48C"/>
<path id="Vector_2" opacity="0.2" d="M88.2199 44.6366C88.2199 44.6366 72.7699 33.2813 57.3249 34.8261C41.8799 36.3709 26.2749 56.1558 26.2749 56.1558L31.2749 59.921C31.2749 59.921 57.1899 38.5615 71.2249 54.3526C85.2599 70.1437 88.2199 44.6366 88.2199 44.6366Z" fill="white"/>
<path id="Vector_3" d="M76.55 43.0518H23.5V77.1027H76.55V43.0518Z" fill="#41638E"/>
<path id="Vector_4" opacity="0.45" d="M162.41 115.764C161.433 115.568 160.511 115.158 159.713 114.564C158.915 113.97 158.26 113.208 157.795 112.331V112.282L134.12 67.4912L121.09 76.6559L130.305 105.437C130.548 106.193 130.603 106.997 130.465 107.78C130.328 108.562 130.002 109.3 129.515 109.93C129.028 110.56 128.395 111.063 127.67 111.398C126.944 111.732 126.149 111.887 125.35 111.849C118.35 111.531 110.905 111.353 103.17 111.353C63.2099 111.353 30.8149 115.977 30.8149 121.685C30.8149 127.392 63.2099 132.022 103.17 132.022C143.13 132.022 175.5 127.397 175.5 121.7C175.5 119.484 170.655 117.443 162.41 115.764Z" fill="#E6E6E6"/>
<path id="Vector_5" d="M87.1203 118.312C87.1203 118.312 87.8603 120.795 90.0553 121.088C92.2503 121.381 92.7103 123.572 90.6953 124.019C88.6803 124.466 83.6953 121.659 83.6953 121.659L84.0103 118.505L87.1203 118.312Z" fill="#2BC48C"/>
<path id="Vector_6" d="M44.3848 117.89C44.3848 117.89 41.8448 118.436 41.3848 120.587C40.9248 122.738 38.6948 123.026 38.3848 120.994C38.0748 118.963 41.2898 114.249 41.2898 114.249L44.4298 114.81L44.3848 117.89Z" fill="#2BC48C"/>
<path id="Vector_7" d="M44.7252 80.8032C44.7252 80.8032 42.3852 91.6518 50.8102 96.3013C59.2352 100.951 85.8102 92.5807 81.7052 118.932H87.6352C87.6352 118.932 95.3002 97.0762 75.4152 89.3073L69.3802 82.507L44.7252 80.8032Z" fill="#24285B"/>
<path id="Vector_8" d="M126.537 72.9726L124.52 71.0576L111.905 84.1727L113.922 86.0877L126.537 72.9726Z" fill="#41638E"/>
<path id="Vector_9" opacity="0.08" d="M126.537 72.9726L124.52 71.0576L111.905 84.1727L113.922 86.0877L126.537 72.9726Z" fill="black"/>
<path id="Vector_10" d="M125.555 72.0336L123.538 70.1187L110.922 83.2337L112.939 85.1487L125.555 72.0336Z" fill="#41638E"/>
<path id="Vector_11" d="M131.041 74.4469C134.284 71.0752 135.078 66.5995 132.814 64.4501C130.55 62.3008 126.086 63.2918 122.843 66.6635C119.599 70.0352 118.805 74.5109 121.069 76.6603C123.333 78.8096 127.798 77.8186 131.041 74.4469Z" fill="#41638E"/>
<path id="Vector_12" opacity="0.08" d="M131.041 74.4469C134.284 71.0752 135.078 66.5995 132.814 64.4501C130.55 62.3008 126.086 63.2918 122.843 66.6635C119.599 70.0352 118.805 74.5109 121.069 76.6603C123.333 78.8096 127.798 77.8186 131.041 74.4469Z" fill="black"/>
<path id="Vector_13" d="M130.056 73.5157C133.3 70.144 134.093 65.6683 131.83 63.519C129.566 61.3697 125.101 62.3606 121.858 65.7323C118.615 69.1041 117.821 73.5798 120.085 75.7291C122.349 77.8784 126.813 76.8875 130.056 73.5157Z" fill="#41638E"/>
<path id="Vector_14" opacity="0.57" d="M128.664 72.1949C130.807 69.9675 131.332 67.0111 129.836 65.5915C128.341 64.1719 125.392 64.8267 123.249 67.054C121.107 69.2813 120.582 72.2377 122.078 73.6574C123.573 75.077 126.522 74.4222 128.664 72.1949Z" fill="white"/>
<path id="Vector_15" d="M109.125 45.8635C109.125 45.8635 106.87 49.1171 104.68 50.7165C104.468 50.8702 104.227 50.9809 103.971 51.0421C103.716 51.1033 103.451 51.1139 103.191 51.0733C102.932 51.0327 102.683 50.9417 102.459 50.8055C102.234 50.6693 102.04 50.4905 101.885 50.2794C101.09 49.1717 100.34 47.4431 101.335 45.5555L102.625 42.1429C102.959 41.4907 103.489 40.9572 104.14 40.6157C104.792 40.2742 105.534 40.1414 106.265 40.2355C109 40.3944 110.595 43.951 109.125 45.8635Z" fill="#F4A28C"/>
<path id="Vector_16" d="M103.415 42.8433L93.2402 46.9165L94.4902 54.1091L101.825 48.1633L103.415 42.8433Z" fill="#F4A28C"/>
<path id="Vector_17" d="M108.26 45.3665C107.282 44.626 106.393 43.776 105.61 42.8331C105.539 43.4717 105.283 44.0759 104.871 44.5717C104.46 45.0675 103.913 45.4335 103.295 45.6248C102.7 45.8194 102.056 45.8024 101.472 45.5768C100.888 45.3511 100.401 44.9308 100.095 44.3879L103.395 40.5134C103.846 39.94 104.445 39.4987 105.128 39.2364C105.811 38.974 106.553 38.9003 107.275 39.0232C107.899 39.1299 108.515 39.2759 109.12 39.4603C110.62 39.9571 111.665 42.0533 113.315 42.1228C113.481 42.1309 113.642 42.1816 113.782 42.2699C113.923 42.3583 114.038 42.4814 114.116 42.627C114.194 42.7727 114.232 42.936 114.228 43.101C114.224 43.266 114.176 43.427 114.09 43.5683C113.28 44.9045 111.51 46.6033 109.345 45.9228C108.955 45.7979 108.589 45.6099 108.26 45.3665Z" fill="#24285B"/>
<path id="Vector_18" d="M103.7 45.8035C103.7 45.8035 104.65 44.6113 103.7 43.9705C102.75 43.3297 101.355 45.0484 102.43 46.1959L103.7 45.8035Z" fill="#F4A28C"/>
<path id="Vector_19" d="M107.6 47.8403L107.48 49.713C107.47 49.8178 107.434 49.9185 107.375 50.006C107.316 50.0935 107.236 50.1651 107.142 50.2144C107.049 50.2636 106.944 50.289 106.838 50.2882C106.732 50.2874 106.628 50.2604 106.535 50.2098L105.18 49.4647L107.6 47.8403Z" fill="#F4A28C"/>
<path id="Vector_20" opacity="0.31" d="M101 48.8236C101 48.8236 101.305 46.5634 102.125 45.7041C102.125 45.7041 98.42 46.9459 98.335 50.9943L101 48.8236Z" fill="#CE8172"/>
<path id="Vector_21" opacity="0.08" d="M33.8301 76.2236C33.8301 76.2236 33.6701 52.7928 62.0001 47.8403L45.3551 77.1028H33.8551L33.8301 76.2236Z" fill="black"/>
<path id="Vector_22" d="M95.8401 56.5974L95.0001 51.7444C94.6716 49.7651 93.8429 47.9011 92.5915 46.3269C91.3401 44.7527 89.707 43.5197 87.8451 42.7436C86.2245 42.0999 84.5299 41.6578 82.8001 41.4272C80.5801 41.1193 77.4701 41.4272 73.9901 42.3363C59.0001 46.2455 48.0001 58.8625 45.7251 74.0725L44.7251 80.8032L69.3801 82.507C69.3801 82.507 68.1301 75.5527 76.8801 75.5527C85.6301 75.5527 96.7101 75.6421 95.8401 56.5974Z" fill="#AFD8FB"/>
<path id="Vector_23" opacity="0.08" d="M71.6801 49.0723C71.6801 49.0723 59.7151 51.1635 46.5651 69.9896L44.7251 80.8035L63.4351 82.1844L71.6801 49.0723Z" fill="black"/>
<path id="Vector_24" d="M85.3999 57.73C87.7349 49.991 78.6798 43.7321 72.2248 48.6498C66.8248 52.7578 60.7249 60.1541 60.4849 72.637C60.0699 95.1638 81.7898 91.1353 111.185 82.507L110.25 75.9452C110.25 75.9452 75.0499 82.5567 79.8299 71.1915C81.8299 66.4378 84.1599 61.848 85.3999 57.73Z" fill="#2BC48C"/>
<path id="Vector_25" opacity="0.2" d="M85.3999 57.73C87.7349 49.991 78.6798 43.7321 72.2248 48.6498C66.8248 52.7578 60.7249 60.1541 60.4849 72.637C60.0699 95.1638 81.7898 91.1353 111.185 82.507L110.25 75.9452C110.25 75.9452 75.0499 82.5567 79.8299 71.1915C81.8299 66.4378 84.1599 61.848 85.3999 57.73Z" fill="white"/>
<path id="Vector_26" d="M73.0449 89.3623C73.0449 89.3623 73.7699 114.273 44.4299 118.933L43.2949 113.653C43.2949 113.653 66.7949 107.866 51.6149 92.3626L73.0449 89.3623Z" fill="#24285B"/>
<path id="Vector_27" opacity="0.08" d="M119.26 122.862C121.022 122.862 122.45 122.337 122.45 121.689C122.45 121.042 121.022 120.517 119.26 120.517C117.499 120.517 116.07 121.042 116.07 121.689C116.07 122.337 117.499 122.862 119.26 122.862Z" fill="black"/>
<path id="Vector_28" opacity="0.08" d="M131.46 119.827C133.222 119.827 134.65 119.302 134.65 118.654C134.65 118.007 133.222 117.482 131.46 117.482C129.698 117.482 128.27 118.007 128.27 118.654C128.27 119.302 129.698 119.827 131.46 119.827Z" fill="black"/>
<path id="Vector_29" opacity="0.08" d="M143.745 122.171C145.507 122.171 146.935 121.646 146.935 120.999C146.935 120.352 145.507 119.827 143.745 119.827C141.983 119.827 140.555 120.352 140.555 120.999C140.555 121.646 141.983 122.171 143.745 122.171Z" fill="black"/>
<path id="Vector_30" opacity="0.08" d="M162.555 123.348C164.317 123.348 165.745 122.824 165.745 122.176C165.745 121.529 164.317 121.004 162.555 121.004C160.793 121.004 159.365 121.529 159.365 122.176C159.365 122.824 160.793 123.348 162.555 123.348Z" fill="black"/>
<path id="Vector_31" opacity="0.08" d="M107.165 119.563C108.965 119.563 110.425 119.025 110.425 118.361C110.425 117.697 108.965 117.159 107.165 117.159C105.364 117.159 103.905 117.697 103.905 118.361C103.905 119.025 105.364 119.563 107.165 119.563Z" fill="black"/>
<path id="Vector_32" d="M110.43 77.2073C110.43 77.2073 118.52 76.3579 119.23 79.4972C119.94 82.6365 118.39 84.3006 111.11 81.9809L110.43 77.2073Z" fill="#F4A28C"/>
<path id="Vector_33" d="M29.835 77.1025C29.835 77.1025 31 81.7917 35.665 80.8032C40.33 79.8147 37 74.0625 29.835 77.1025Z" fill="#F4A28C"/>
</g>
</svg>
